<svg width="187" height="36" viewBox="0 0 187 36" fill="none" xmlns="http://www.w3.org/2000/svg">
<path d="M26.2679 28V7.12888H29.7266V28H26.2679ZM32.5658 28V13.0921H35.6965L35.9052 15.8351V28H32.5658ZM42.6734 28V20.3671H46.0128V28H42.6734ZM42.6734 20.3671C42.6734 19.1745 42.5343 18.2601 42.256 17.6241C41.9976 16.9681 41.6199 16.5109 41.123 16.2525C40.6459 15.9941 40.0794 15.8649 39.4235 15.8649C38.3104 15.8451 37.4457 16.2128 36.8295 16.9681C36.2133 17.7235 35.9052 18.8068 35.9052 20.2181H34.6529C34.6529 18.6478 34.8815 17.306 35.3387 16.1929C35.7959 15.0599 36.4518 14.2052 37.3066 13.6287C38.1613 13.0324 39.175 12.7343 40.3478 12.7343C41.5404 12.7343 42.5542 12.9728 43.389 13.4498C44.2437 13.9269 44.8897 14.6723 45.327 15.686C45.7842 16.6799 46.0128 17.9819 46.0128 19.5919V20.3671H42.6734ZM55.1798 28.3578C53.6492 28.3578 52.2976 28.0298 51.1248 27.3739C49.9521 26.698 49.0278 25.7737 48.352 24.601C47.696 23.4282 47.368 22.0766 47.368 20.546C47.368 19.0155 47.696 17.6638 48.352 16.4911C49.0278 15.3183 49.9421 14.404 51.095 13.748C52.2678 13.0722 53.6095 12.7343 55.1202 12.7343C56.5911 12.7343 57.9228 13.0921 59.1155 13.8076C60.3081 14.5033 61.1927 15.5071 61.7691 16.819L58.6682 18.0117C58.3502 17.3557 57.8632 16.829 57.2073 16.4314C56.5513 16.0339 55.8059 15.8351 54.9711 15.8351C54.1561 15.8351 53.4306 16.0438 52.7945 16.4613C52.1584 16.8588 51.6615 17.4154 51.3037 18.1309C50.9459 18.8266 50.767 19.6317 50.767 20.546C50.767 21.4604 50.9459 22.2753 51.3037 22.9909C51.6814 23.6866 52.1883 24.2432 52.8243 24.6606C53.4803 25.0582 54.2157 25.2569 55.0307 25.2569C55.8656 25.2569 56.611 25.0482 57.2669 24.6308C57.9228 24.1935 58.4098 23.6071 58.7279 22.8717L61.8287 24.0643C61.2523 25.416 60.3678 26.4695 59.1751 27.2248C58.0024 27.9801 56.6706 28.3578 55.1798 28.3578ZM65.4348 20.069C65.4348 18.4589 65.7429 17.1371 66.3591 16.1035C66.9753 15.0698 67.7704 14.3046 68.7444 13.8076C69.7382 13.2908 70.7719 13.0324 71.8452 13.0324V16.2227C70.9309 16.2227 70.0662 16.3519 69.2513 16.6103C68.4562 16.8489 67.8102 17.2464 67.3132 17.803C66.8163 18.3595 66.5678 19.095 66.5678 20.0093L65.4348 20.069ZM63.2284 28V13.0921H66.5678V28H63.2284ZM79.5163 28.3578C78.0653 28.3578 76.7732 28.0298 75.6402 27.3739C74.5271 26.698 73.6426 25.7737 72.9866 24.601C72.3506 23.4282 72.0325 22.0766 72.0325 20.546C72.0325 19.0155 72.3605 17.6638 73.0164 16.4911C73.6724 15.3183 74.5669 14.404 75.6999 13.748C76.8528 13.0722 78.1646 12.7343 79.6356 12.7343C80.9673 12.7343 82.1699 13.0821 83.2433 13.7778C84.3167 14.4536 85.1614 15.4376 85.7776 16.7296C86.4137 18.0216 86.7317 19.5621 86.7317 21.3511H75.0141L75.4613 20.9336C75.4613 21.848 75.6601 22.6431 76.0577 23.3189C76.4552 23.9749 76.982 24.4817 77.6379 24.8395C78.2939 25.1973 79.0194 25.3762 79.8145 25.3762C80.7288 25.3762 81.4842 25.1774 82.0805 24.7799C82.6768 24.3625 83.1439 23.8258 83.4818 23.1698L86.4336 24.4221C86.0162 25.2172 85.4795 25.9129 84.8235 26.5092C84.1875 27.1055 83.4222 27.5627 82.5277 27.8807C81.6531 28.1988 80.6493 28.3578 79.5163 28.3578ZM75.6701 19.2043L75.193 18.7869H83.6011L83.1538 19.2043C83.1538 18.3893 82.9749 17.7235 82.6172 17.2066C82.2594 16.67 81.8022 16.2724 81.2456 16.014C80.7089 15.7357 80.1424 15.5966 79.5461 15.5966C78.9498 15.5966 78.3535 15.7357 77.7572 16.014C77.1608 16.2724 76.6639 16.67 76.2664 17.2066C75.8688 17.7235 75.6701 18.3893 75.6701 19.2043ZM99.4566 28L99.3075 25.2271V7.12888H102.617V28H99.4566ZM94.5966 28.3578C93.245 28.3578 92.0623 28.0398 91.0485 27.4037C90.0547 26.7477 89.2695 25.8334 88.6931 24.6606C88.1365 23.4879 87.8582 22.1163 87.8582 20.546C87.8582 18.9558 88.1365 17.5843 88.6931 16.4314C89.2695 15.2587 90.0547 14.3543 91.0485 13.7182C92.0623 13.0622 93.245 12.7343 94.5966 12.7343C95.8489 12.7343 96.9223 13.0622 97.8167 13.7182C98.7311 14.3543 99.4268 15.2587 99.9038 16.4314C100.381 17.5843 100.619 18.9558 100.619 20.546C100.619 22.1163 100.381 23.4879 99.9038 24.6606C99.4268 25.8334 98.7311 26.7477 97.8167 27.4037C96.9223 28.0398 95.8489 28.3578 94.5966 28.3578ZM95.4315 25.3166C96.1868 25.3166 96.8527 25.1178 97.4291 24.7203C98.0254 24.3028 98.4826 23.7363 98.8007 23.0207C99.1386 22.3052 99.3075 21.4803 99.3075 20.546C99.3075 19.6118 99.1386 18.7869 98.8007 18.0713C98.4826 17.3557 98.0254 16.7992 97.4291 16.4016C96.8527 16.0041 96.1769 15.8053 95.4016 15.8053C94.6066 15.8053 93.9009 16.0041 93.2847 16.4016C92.6685 16.7992 92.1815 17.3557 91.8237 18.0713C91.4858 18.7869 91.3069 19.6118 91.2871 20.546C91.3069 21.4803 91.4858 22.3052 91.8237 23.0207C92.1815 23.7363 92.6685 24.3028 93.2847 24.7203C93.9208 25.1178 94.6364 25.3166 95.4315 25.3166ZM105.564 28V13.0921H108.873V28H105.564ZM107.233 10.2595C106.697 10.2595 106.229 10.0707 105.832 9.69305C105.454 9.2955 105.265 8.82839 105.265 8.2917C105.265 7.75501 105.454 7.29784 105.832 6.92017C106.229 6.5425 106.697 6.35367 107.233 6.35367C107.77 6.35367 108.227 6.5425 108.605 6.92017C109.002 7.29784 109.201 7.75501 109.201 8.2917C109.201 8.82839 109.002 9.2955 108.605 9.69305C108.227 10.0707 107.77 10.2595 107.233 10.2595ZM111.616 28V7.12888H114.956V25.2271L114.777 28H111.616ZM119.666 28.3578C118.414 28.3578 117.331 28.0398 116.416 27.4037C115.522 26.7477 114.836 25.8334 114.359 24.6606C113.882 23.4879 113.644 22.1163 113.644 20.546C113.644 18.9558 113.882 17.5843 114.359 16.4314C114.836 15.2587 115.522 14.3543 116.416 13.7182C117.331 13.0622 118.414 12.7343 119.666 12.7343C121.018 12.7343 122.191 13.0622 123.185 13.7182C124.198 14.3543 124.984 15.2587 125.54 16.4314C126.117 17.5843 126.405 18.9558 126.405 20.546C126.405 22.1163 126.117 23.4879 125.54 24.6606C124.984 25.8334 124.198 26.7477 123.185 27.4037C122.191 28.0398 121.018 28.3578 119.666 28.3578ZM118.832 25.3166C119.627 25.3166 120.332 25.1178 120.949 24.7203C121.565 24.3028 122.052 23.7363 122.409 23.0207C122.787 22.3052 122.976 21.4803 122.976 20.546C122.976 19.6118 122.797 18.7869 122.439 18.0713C122.101 17.3557 121.624 16.7992 121.008 16.4016C120.392 16.0041 119.676 15.8053 118.861 15.8053C118.106 15.8053 117.43 16.0041 116.834 16.4016C116.238 16.7992 115.77 17.3557 115.433 18.0713C115.115 18.7869 114.956 19.6118 114.956 20.546C114.956 21.4803 115.115 22.3052 115.433 23.0207C115.77 23.7363 116.228 24.3028 116.804 24.7203C117.4 25.1178 118.076 25.3166 118.832 25.3166ZM128.218 28V7.12888H131.557V28H128.218ZM140.571 28.3578C139.12 28.3578 137.828 28.0298 136.695 27.3739C135.582 26.698 134.697 25.7737 134.041 24.601C133.405 23.4282 133.087 22.0766 133.087 20.546C133.087 19.0155 133.415 17.6638 134.071 16.4911C134.727 15.3183 135.622 14.404 136.755 13.748C137.908 13.0722 139.219 12.7343 140.69 12.7343C142.022 12.7343 143.225 13.0821 144.298 13.7778C145.371 14.4536 146.216 15.4376 146.832 16.7296C147.468 18.0216 147.787 19.5621 147.787 21.3511H136.069L136.516 20.9336C136.516 21.848 136.715 22.6431 137.112 23.3189C137.51 23.9749 138.037 24.4817 138.693 24.8395C139.349 25.1973 140.074 25.3762 140.869 25.3762C141.784 25.3762 142.539 25.1774 143.135 24.7799C143.732 24.3625 144.199 23.8258 144.537 23.1698L147.488 24.4221C147.071 25.2172 146.534 25.9129 145.878 26.5092C145.242 27.1055 144.477 27.5627 143.582 27.8807C142.708 28.1988 141.704 28.3578 140.571 28.3578ZM136.725 19.2043L136.248 18.7869H144.656L144.209 19.2043C144.209 18.3893 144.03 17.7235 143.672 17.2066C143.314 16.67 142.857 16.2724 142.3 16.014C141.764 15.7357 141.197 15.5966 140.601 15.5966C140.005 15.5966 139.408 15.7357 138.812 16.014C138.216 16.2724 137.719 16.67 137.321 17.2066C136.924 17.7235 136.725 18.3893 136.725 19.2043Z" fill="black"/>
<circle cx="10" cy="18" r="10" fill="url(#paint0_linear_64_8)"/>
<rect x="155" y="13" width="32" height="16" rx="6" fill="#3A3A3A"/>
<path d="M168.78 24L165.97 17H166.82L169.67 24H168.78ZM163.09 24L165.94 17H166.8L163.99 24H163.09ZM164.44 22.01V21.25H168.33V22.01H164.44ZM170.698 24V17H172.978C173.431 17 173.831 17.0933 174.178 17.28C174.531 17.4667 174.804 17.7267 174.998 18.06C175.198 18.3933 175.298 18.78 175.298 19.22C175.298 19.6467 175.208 20.0267 175.028 20.36C174.848 20.6933 174.601 20.9567 174.288 21.15C173.974 21.3367 173.611 21.43 173.198 21.43H171.548V24H170.698ZM171.548 20.66H173.198C173.564 20.66 173.864 20.5267 174.098 20.26C174.338 19.9867 174.458 19.64 174.458 19.22C174.458 18.7867 174.318 18.4367 174.038 18.17C173.758 17.9033 173.401 17.77 172.968 17.77H171.548V20.66ZM176.489 24V17H177.339V24H176.489Z" fill="#DDDDDD"/>
<defs>
<linearGradient id="paint0_linear_64_8" x1="0" y1="8" x2="23.4568" y2="13.6511" gradientUnits="userSpaceOnUse">
<stop stop-color="#FF6C20"/>
<stop offset="0.471154" stop-color="#FF5432"/>
<stop offset="0.730769" stop-color="#FF6E1F"/>
<stop offset="1" stop-color="#FFCF26"/>
</linearGradient>
</defs>
</svg>
