<svg width="594" height="703" viewBox="0 0 594 703" fill="none" xmlns="http://www.w3.org/2000/svg">
<path d="M446.456 13.2939C511.882 -24.479 593.664 22.7384 593.664 98.2852L593.663 557.071C593.663 649.724 477.084 690.77 419.035 618.557L388.49 580.559C385.131 595.632 379.455 610.457 371.325 624.539C328.366 698.947 233.221 724.442 158.813 681.482C84.4044 638.523 58.9096 543.377 101.869 468.969C109.999 454.888 119.999 442.56 131.372 432.115L83.2012 424.663C-8.36263 410.498 -31.1041 289.014 49.1357 242.688L446.456 13.2939ZM397.618 267.849C323.21 224.889 228.065 250.383 185.105 324.791C169.796 351.308 163.183 380.459 164.377 408.942C210.007 385.085 266.49 384.376 314.383 412.026C362.273 439.676 389.898 488.943 392.054 540.386C417.316 527.178 439.252 506.876 454.561 480.361C497.52 405.953 472.026 310.808 397.618 267.849Z" fill="url(#paint0_linear_624_40)"/>
<defs>
<linearGradient id="paint0_linear_624_40" x1="594.362" y1="451.752" x2="261.555" y2="-59.985" gradientUnits="userSpaceOnUse">
<stop stop-color="#FF7802"/>
<stop offset="1" stop-color="#BC3500"/>
</linearGradient>
</defs>
</svg>
