<svg width="105" height="149" viewBox="0 0 105 149" fill="none" xmlns="http://www.w3.org/2000/svg">
<path d="M6.5416 148.471C2.92878 148.471 -1.2049e-07 145.715 -2.69122e-07 142.314C-4.17754e-07 138.914 2.92877 136.158 6.5416 136.158L98.124 136.158C101.737 136.158 104.666 138.914 104.666 142.314C104.666 145.715 101.737 148.471 98.124 148.471L6.5416 148.471Z" fill="#FF6200"/>
<path d="M7.67224 125.896C4.0358 125.896 1.08789 123.14 1.08789 119.74C1.08789 116.339 4.03581 113.583 7.67224 113.583L62.2283 113.583C65.8648 113.583 68.8127 116.339 68.8127 119.74C68.8127 123.14 65.8647 125.896 62.2283 125.896L7.67224 125.896Z" fill="#FF6200"/>
<path d="M47.793 103.321C44.0664 103.321 41.0454 100.565 41.0454 97.1645C41.0454 93.7642 44.0664 91.0077 47.793 91.0077L97.9181 91.0077C101.645 91.0077 104.666 93.7642 104.666 97.1645C104.666 100.565 101.645 103.321 97.918 103.321L47.793 103.321Z" fill="#FF6200"/>
<path d="M6.734 80.7466C3.01492 80.7466 -1.2049e-07 77.9901 -2.69122e-07 74.5898C-4.17754e-07 71.1895 3.01491 68.433 6.734 68.433L54.834 68.433C58.5531 68.433 61.568 71.1895 61.568 74.5898C61.568 77.9901 58.5531 80.7466 54.834 80.7466L6.734 80.7466Z" fill="#FF6200"/>
<path d="M88.6747 58.1714C85.0383 58.1714 82.0903 55.4149 82.0903 52.0146C82.0903 48.6143 85.0382 45.8578 88.6747 45.8578L98.0809 45.8578C101.717 45.8578 104.665 48.6143 104.665 52.0146C104.665 55.4149 101.717 58.1714 98.0809 58.1714L88.6747 58.1714Z" fill="#FF6200"/>
<path d="M6.6083 35.5967C2.95864 35.5967 -1.2049e-07 32.8402 -2.69122e-07 29.4399C-4.17754e-07 26.0396 2.95864 23.2831 6.6083 23.2831L40.5938 23.2831C44.2435 23.2831 47.2021 26.0396 47.2021 29.4399C47.2021 32.8402 44.2435 35.5967 40.5938 35.5967L6.6083 35.5967Z" fill="#FF6200"/>
<path d="M6.5416 15.0737C2.92878 15.0737 -1.40572e-07 11.8578 -3.13976e-07 7.8908C-4.8738e-07 3.92378 2.92877 0.707872 6.5416 0.707872L98.124 0.707868C101.737 0.707868 104.666 3.92377 104.666 7.8908C104.666 11.8578 101.737 15.0737 98.124 15.0737L6.5416 15.0737Z" fill="#FF6200"/>
</svg>
