<svg width="981" height="150" viewBox="0 0 981 150" fill="none" xmlns="http://www.w3.org/2000/svg">
<path d="M6.5416 149.763C2.92878 149.763 1.93486e-07 147.007 4.4854e-08 143.607C-1.03778e-07 140.206 2.92877 137.45 6.5416 137.45L98.124 137.45C101.737 137.45 104.666 140.206 104.666 143.607C104.666 147.007 101.737 149.763 98.124 149.763H6.5416Z" fill="#FF6200"/>
<path d="M7.67212 127.188C4.03568 127.188 1.08777 124.432 1.08777 121.032C1.08777 117.631 4.03569 114.875 7.67213 114.875L62.2282 114.875C65.8646 114.875 68.8126 117.631 68.8126 121.032C68.8126 124.432 65.8646 127.188 62.2282 127.188H7.67212Z" fill="#FF6200"/>
<path d="M47.7932 104.614C44.0666 104.614 41.0456 101.857 41.0456 98.4567C41.0456 95.0564 44.0666 92.2999 47.7932 92.2999L97.9183 92.2999C101.645 92.2999 104.666 95.0564 104.666 98.4567C104.666 101.857 101.645 104.614 97.9183 104.614H47.7932Z" fill="#FF6200"/>
<path d="M6.734 82.0386C3.01492 82.0386 1.93486e-07 79.2821 4.48538e-08 75.8818C-1.03778e-07 72.4814 3.01491 69.725 6.734 69.725H54.834C58.5531 69.725 61.568 72.4814 61.568 75.8818C61.568 79.2821 58.5531 82.0386 54.834 82.0386H6.734Z" fill="#FF6200"/>
<path d="M88.6749 59.4636C85.0384 59.4636 82.0905 56.7071 82.0905 53.3068C82.0905 49.9065 85.0384 47.15 88.6749 47.15H98.0811C101.718 47.15 104.665 49.9065 104.665 53.3068C104.665 56.7071 101.718 59.4636 98.0811 59.4636H88.6749Z" fill="#FF6200"/>
<path d="M6.6083 36.8887C2.95864 36.8887 1.93486e-07 34.1322 4.48538e-08 30.7319C-1.03778e-07 27.3316 2.95864 24.5751 6.6083 24.5751L40.5938 24.5751C44.2435 24.5751 47.2021 27.3316 47.2021 30.7319C47.2021 34.1322 44.2435 36.8887 40.5938 36.8887H6.6083Z" fill="#FF6200"/>
<path d="M6.5416 16.3658C2.92878 16.3658 1.73404e-07 13.1499 0 9.18292C-1.73404e-07 5.2159 2.92877 1.99999 6.5416 1.99999L98.124 1.99999C101.737 1.99999 104.666 5.21589 104.666 9.18291C104.666 13.1499 101.737 16.3658 98.124 16.3658L6.5416 16.3658Z" fill="#FF6200"/>
<path d="M153 147.561V5.28455H176.566V147.561H153Z" fill="#0F0F0F"/>
<path d="M195.912 147.561V45.935H217.244L218.666 64.6341V147.561H195.912ZM264.783 147.561V95.5285H287.537V147.561H264.783ZM264.783 95.5285C264.783 87.3984 263.835 81.1653 261.939 76.8293C260.178 72.3577 257.605 69.2412 254.219 67.4797C250.968 65.7182 247.108 64.8374 242.639 64.8374C235.054 64.7019 229.163 67.2087 224.964 72.3577C220.766 77.5068 218.666 84.8916 218.666 94.5122H210.134C210.134 83.8076 211.691 74.6612 214.806 67.0732C217.921 59.3496 222.391 53.523 228.215 49.5935C234.039 45.5285 240.946 43.4959 248.937 43.4959C257.063 43.4959 263.971 45.122 269.659 48.374C275.483 51.626 279.885 56.7073 282.864 63.6179C285.979 70.393 287.537 79.2683 287.537 90.2439V95.5285H264.783Z" fill="#0F0F0F"/>
<path d="M349.999 150C339.57 150 330.36 147.764 322.369 143.293C314.378 138.686 308.08 132.385 303.475 124.39C299.006 116.396 296.771 107.182 296.771 96.748C296.771 86.3144 299.006 77.1003 303.475 69.1057C308.08 61.1111 314.311 54.878 322.166 50.4065C330.157 45.7995 339.299 43.4959 349.592 43.4959C359.615 43.4959 368.689 45.935 376.816 50.813C384.942 55.5556 390.969 62.3984 394.897 71.3415L373.768 79.4715C371.601 75 368.283 71.4092 363.814 68.6992C359.344 65.9892 354.265 64.6341 348.577 64.6341C343.024 64.6341 338.08 66.0569 333.746 68.9024C329.412 71.6125 326.026 75.4065 323.588 80.2846C321.15 85.0271 319.931 90.5149 319.931 96.748C319.931 102.981 321.15 108.537 323.588 113.415C326.161 118.157 329.615 121.951 333.949 124.797C338.419 127.507 343.43 128.862 348.983 128.862C354.671 128.862 359.75 127.439 364.22 124.593C368.689 121.612 372.008 117.615 374.175 112.602L395.303 120.732C391.375 129.946 385.348 137.127 377.222 142.276C369.231 147.425 360.157 150 349.999 150Z" fill="#0F0F0F"/>
<path d="M419.874 93.4959C419.874 82.5203 421.974 73.5095 426.172 66.4634C430.371 59.4173 435.788 54.2005 442.425 50.813C449.197 47.29 456.24 45.5285 463.553 45.5285V67.2764C457.323 67.2764 451.432 68.1572 445.879 69.9187C440.461 71.5447 436.059 74.2547 432.673 78.0488C429.287 81.8428 427.594 86.8564 427.594 93.0894L419.874 93.4959ZM404.84 147.561V45.935H427.594V147.561H404.84Z" fill="#0F0F0F"/>
<path d="M515.822 150C505.935 150 497.132 147.764 489.412 143.293C481.827 138.686 475.8 132.385 471.33 124.39C466.996 116.396 464.829 107.182 464.829 96.748C464.829 86.3144 467.064 77.1003 471.534 69.1057C476.003 61.1111 482.098 54.878 489.818 50.4065C497.673 45.7995 506.612 43.4959 516.635 43.4959C525.709 43.4959 533.903 45.8672 541.217 50.6098C548.531 55.2168 554.287 61.9241 558.486 70.7317C562.82 79.5393 564.987 90.0407 564.987 102.236H485.145L488.193 99.3902C488.193 105.623 489.547 111.043 492.256 115.65C494.965 120.122 498.554 123.577 503.023 126.016C507.493 128.455 512.436 129.675 517.854 129.675C524.084 129.675 529.231 128.32 533.294 125.61C537.357 122.764 540.54 119.106 542.842 114.634L562.955 123.171C560.111 128.591 556.454 133.333 551.984 137.398C547.65 141.463 542.436 144.58 536.341 146.748C530.382 148.916 523.542 150 515.822 150ZM489.615 87.6016L486.364 84.7561H543.655L540.608 87.6016C540.608 82.0461 539.389 77.5068 536.951 73.9837C534.513 70.3252 531.398 67.6152 527.605 65.8537C523.949 63.9566 520.089 63.0081 516.025 63.0081C511.962 63.0081 507.899 63.9566 503.836 65.8537C499.773 67.6152 496.387 70.3252 493.678 73.9837C490.969 77.5068 489.615 82.0461 489.615 87.6016Z" fill="#0F0F0F"/>
<path d="M651.691 147.561L650.675 128.659V5.28455H673.226V147.561H651.691ZM618.576 150C609.366 150 601.308 147.832 594.4 143.496C587.628 139.024 582.278 132.791 578.351 124.797C574.558 116.802 572.662 107.453 572.662 96.748C572.662 85.9079 574.558 76.5583 578.351 68.6992C582.278 60.7046 587.628 54.5393 594.4 50.2032C601.308 45.7317 609.366 43.4959 618.576 43.4959C627.109 43.4959 634.422 45.7317 640.517 50.2032C646.747 54.5393 651.488 60.7046 654.738 68.6992C657.989 76.5583 659.614 85.9079 659.614 96.748C659.614 107.453 657.989 116.802 654.738 124.797C651.488 132.791 646.747 139.024 640.517 143.496C634.422 147.832 627.109 150 618.576 150ZM624.265 129.268C629.411 129.268 633.948 127.913 637.876 125.203C641.939 122.358 645.054 118.496 647.221 113.618C649.524 108.74 650.675 103.117 650.675 96.748C650.675 90.3794 649.524 84.7561 647.221 79.8781C645.054 75 641.939 71.206 637.876 68.4959C633.948 65.7859 629.343 64.4309 624.061 64.4309C618.644 64.4309 613.836 65.7859 609.637 68.4959C605.438 71.206 602.12 75 599.682 79.8781C597.38 84.7561 596.161 90.3794 596.025 96.748C596.161 103.117 597.38 108.74 599.682 113.618C602.12 118.496 605.438 122.358 609.637 125.203C613.971 127.913 618.847 129.268 624.265 129.268Z" fill="#0F0F0F"/>
<path d="M693.302 147.561V45.935H715.853V147.561H693.302ZM704.679 26.626C701.022 26.626 697.839 25.3387 695.13 22.7642C692.557 20.0542 691.27 16.8699 691.27 13.2114C691.27 9.55284 692.557 6.43631 695.13 3.86179C697.839 1.28726 701.022 0 704.679 0C708.336 0 711.451 1.28726 714.024 3.86179C716.733 6.43631 718.087 9.55284 718.087 13.2114C718.087 16.8699 716.733 20.0542 714.024 22.7642C711.451 25.3387 708.336 26.626 704.679 26.626Z" fill="#0F0F0F"/>
<path d="M734.543 147.561V5.28455H757.297V128.659L756.078 147.561H734.543ZM789.396 150C780.863 150 773.482 147.832 767.252 143.496C761.157 139.024 756.484 132.791 753.234 124.797C749.983 116.802 748.358 107.453 748.358 96.748C748.358 85.9079 749.983 76.5583 753.234 68.6992C756.484 60.7046 761.157 54.5393 767.252 50.2032C773.482 45.7317 780.863 43.4959 789.396 43.4959C798.606 43.4959 806.597 45.7317 813.369 50.2032C820.276 54.5393 825.626 60.7046 829.418 68.6992C833.346 76.5583 835.31 85.9079 835.31 96.748C835.31 107.453 833.346 116.802 829.418 124.797C825.626 132.791 820.276 139.024 813.369 143.496C806.597 147.832 798.606 150 789.396 150ZM783.708 129.268C789.125 129.268 793.933 127.913 798.132 125.203C802.33 122.358 805.649 118.496 808.087 113.618C810.66 108.74 811.947 103.117 811.947 96.748C811.947 90.3794 810.728 84.7561 808.29 79.8781C805.987 75 802.737 71.206 798.538 68.4959C794.339 65.7859 789.464 64.4309 783.911 64.4309C778.764 64.4309 774.159 65.7859 770.096 68.4959C766.033 71.206 762.85 75 760.547 79.8781C758.38 84.7561 757.297 90.3794 757.297 96.748C757.297 103.117 758.38 108.74 760.547 113.618C762.85 118.496 765.965 122.358 769.893 125.203C773.956 127.913 778.561 129.268 783.708 129.268Z" fill="#0F0F0F"/>
<path d="M847.661 147.561V5.28455H870.415V147.561H847.661Z" fill="#0F0F0F"/>
<path d="M931.836 150C921.948 150 913.145 147.764 905.425 143.293C897.84 138.686 891.813 132.385 887.344 124.39C883.01 116.396 880.843 107.182 880.843 96.748C880.843 86.3144 883.078 77.1003 887.547 69.1057C892.016 61.1111 898.111 54.878 905.831 50.4065C913.687 45.7995 922.626 43.4959 932.648 43.4959C941.723 43.4959 949.917 45.8672 957.23 50.6098C964.544 55.2168 970.3 61.9241 974.499 70.7317C978.833 79.5393 981 90.0407 981 102.236H901.159L904.206 99.3902C904.206 105.623 905.56 111.043 908.269 115.65C910.978 120.122 914.567 123.577 919.037 126.016C923.506 128.455 928.45 129.675 933.867 129.675C940.097 129.675 945.244 128.32 949.307 125.61C953.37 122.764 956.553 119.106 958.856 114.634L978.968 123.171C976.124 128.591 972.467 133.333 967.998 137.398C963.664 141.463 958.449 144.58 952.355 146.748C946.395 148.916 939.556 150 931.836 150ZM905.628 87.6016L902.378 84.7561H959.668L956.621 87.6016C956.621 82.0461 955.402 77.5068 952.964 73.9837C950.526 70.3252 947.411 67.6152 943.619 65.8537C939.962 63.9566 936.102 63.0081 932.039 63.0081C927.976 63.0081 923.912 63.9566 919.849 65.8537C915.786 67.6152 912.4 70.3252 909.691 73.9837C906.982 77.5068 905.628 82.0461 905.628 87.6016Z" fill="#0F0F0F"/>
</svg>
