<svg width="4732" height="1104" viewBox="0 0 4732 1104" fill="none" xmlns="http://www.w3.org/2000/svg">
<path d="M446.456 214.119C511.882 176.346 593.663 223.563 593.663 299.109L593.663 757.895C593.663 850.548 477.084 891.595 419.035 819.381L388.49 781.383C385.131 796.456 379.455 811.282 371.324 825.364C328.365 899.772 233.22 925.266 158.812 882.306C84.4036 839.347 58.9096 744.202 101.869 669.794C109.999 655.713 119.998 643.384 131.371 632.939L83.2012 625.487C-8.36262 611.322 -31.1041 489.838 49.1357 443.512L446.456 214.119ZM397.617 468.674C323.209 425.714 228.064 451.208 185.104 525.616C169.795 552.134 163.181 581.285 164.375 609.769C210.005 585.911 266.488 585.2 314.382 612.851C362.272 640.501 389.897 689.768 392.054 741.21C417.315 728.002 439.251 707.701 454.56 681.186C497.519 606.778 472.025 511.633 397.617 468.674Z" fill="url(#paint0_linear_1338_2779)"/>
<path d="M876.1 373.501H983.088V849H876.1V373.501ZM871.006 212.171H987.333V329.348H871.006V212.171ZM1060.89 373.501H1167.87V449.071C1174.1 433.221 1183.44 418.787 1195.89 405.767C1208.91 392.181 1225.61 381.143 1245.99 372.652C1266.37 364.161 1291.56 359.915 1321.56 359.915C1352.13 359.915 1379.3 366.142 1403.08 378.596C1426.85 391.049 1445.53 411.711 1459.12 440.58C1473.27 468.884 1480.35 507.377 1480.35 556.059V849H1373.36V567.097C1373.36 545.02 1371.38 525.208 1367.41 507.66C1363.45 490.112 1355.53 476.526 1343.64 466.903C1332.32 457.279 1315.34 452.468 1292.69 452.468C1272.88 452.468 1253.35 458.129 1234.1 469.45C1214.86 480.771 1199.01 498.32 1186.55 522.094C1174.1 545.303 1167.87 575.871 1167.87 613.798V849H1060.89V373.501ZM1998.48 649.46C1997.91 690.217 1988.29 726.729 1969.61 758.995C1950.93 791.261 1924.89 816.734 1891.49 835.414C1858.66 853.529 1819.88 862.586 1775.16 862.586C1725.92 862.586 1683.18 852.113 1646.95 831.169C1610.72 809.658 1582.42 779.939 1562.04 742.013C1542.23 704.086 1532.32 660.782 1532.32 612.1C1532.32 562.852 1542.23 519.264 1562.04 481.337C1582.42 443.411 1610.72 413.692 1646.95 392.181C1683.18 370.671 1725.92 359.915 1775.16 359.915C1818.18 359.915 1856.11 369.539 1888.94 388.785C1922.34 407.465 1948.38 432.089 1967.06 462.657C1986.31 492.659 1996.21 525.208 1996.78 560.304H1884.7C1884.13 542.756 1879.89 526.34 1871.96 511.056C1864.6 495.206 1853 482.187 1837.15 471.997C1821.3 461.808 1800.64 456.713 1775.16 456.713C1744.6 456.713 1719.41 463.506 1699.59 477.092C1679.78 490.678 1665.06 509.358 1655.44 533.133C1646.38 556.342 1641.85 582.664 1641.85 612.1C1641.85 640.969 1646.38 667.008 1655.44 690.217C1665.06 713.426 1679.78 731.823 1699.59 745.409C1719.41 758.429 1744.6 764.939 1775.16 764.939C1801.77 764.939 1823 759.561 1838.85 748.806C1855.26 738.05 1867.43 723.898 1875.36 706.35C1883.28 688.802 1887.53 669.839 1888.09 649.46H1998.48ZM2052.68 373.501H2159.67V849H2052.68V373.501ZM2159.67 607.854L2146.93 528.887C2146.93 514.169 2148.35 497.187 2151.18 477.941C2154.57 458.695 2161.65 440.297 2172.41 422.749C2183.73 404.635 2200.71 389.634 2223.35 377.747C2245.99 365.859 2276.28 359.915 2314.21 359.915V465.204C2280.81 465.204 2252.5 469.45 2229.3 477.941C2206.09 485.866 2188.54 500.018 2176.65 520.396C2165.33 540.775 2159.67 569.927 2159.67 607.854ZM2560.49 862.586C2511.24 862.586 2468.5 852.113 2432.27 831.169C2396.04 809.658 2367.74 779.939 2347.36 742.013C2327.55 704.086 2317.64 660.782 2317.64 612.1C2317.64 562.852 2327.55 519.264 2347.36 481.337C2367.74 443.411 2396.04 413.692 2432.27 392.181C2468.5 370.671 2511.24 359.915 2560.49 359.915C2592.75 359.915 2623.04 366.425 2651.34 379.445C2680.21 391.898 2705.12 410.579 2726.06 435.486C2747.01 459.827 2762.29 489.828 2771.91 525.491C2781.54 561.153 2783.52 601.627 2777.86 646.913H2378.78V559.455H2710.78L2672.57 584.079C2674.27 562.568 2671.15 541.907 2663.23 522.094C2655.87 502.282 2643.7 486.432 2626.72 474.545C2609.73 462.091 2587.66 455.864 2560.49 455.864C2529.92 455.864 2504.73 462.657 2484.92 476.243C2465.1 489.828 2450.39 508.509 2440.76 532.284C2431.71 556.059 2427.18 582.664 2427.18 612.1C2427.18 640.969 2431.71 667.291 2440.76 691.066C2450.39 714.275 2465.1 732.673 2484.92 746.258C2504.73 759.844 2529.92 766.637 2560.49 766.637C2588.79 766.637 2611.72 760.127 2629.26 747.107C2646.81 733.522 2658.98 717.106 2665.78 697.859H2778.71C2771.35 730.691 2757.76 759.561 2737.95 784.468C2718.7 808.809 2693.8 828.055 2663.23 842.207C2633.23 855.793 2598.98 862.586 2560.49 862.586ZM3030.83 862.586C2987.24 862.586 2949.32 852.113 2917.05 831.169C2884.78 809.658 2859.88 779.939 2842.33 742.013C2825.35 704.086 2816.86 660.782 2816.86 612.1C2816.86 562.852 2825.35 519.264 2842.33 481.337C2859.88 443.411 2884.78 413.692 2917.05 392.181C2949.32 370.671 2987.24 359.915 3030.83 359.915C3065.36 359.915 3094.51 366.708 3118.29 380.294C3142.06 393.313 3161.03 411.994 3175.18 436.335V787.015C3161.59 810.224 3142.91 828.621 3119.14 842.207C3095.93 855.793 3066.49 862.586 3030.83 862.586ZM3047.81 766.637C3076.68 766.637 3100.46 759.844 3119.14 746.258C3138.38 732.673 3152.54 714.275 3161.59 691.066C3170.65 667.291 3175.18 640.969 3175.18 612.1C3175.18 582.664 3170.65 556.059 3161.59 532.284C3152.54 508.509 3138.38 489.828 3119.14 476.243C3100.46 462.657 3076.68 455.864 3047.81 455.864C3022.34 455.864 3000.26 462.657 2981.58 476.243C2963.47 489.262 2949.6 507.66 2939.98 531.435C2930.92 555.21 2926.39 582.098 2926.39 612.1C2926.39 641.535 2930.92 668.141 2939.98 691.916C2949.6 715.124 2963.47 733.522 2981.58 747.107C3000.26 760.127 3022.34 766.637 3047.81 766.637ZM3175.18 849V212.171H3282.17V849H3175.18ZM3362.25 373.501H3469.24V849H3362.25V373.501ZM3357.16 212.171H3473.49V329.348H3357.16V212.171ZM3800.07 862.586C3760.45 862.586 3727.9 854.378 3702.43 837.962C3677.52 821.546 3658.27 798.903 3644.69 770.033C3631.67 741.164 3622.89 708.332 3618.37 671.537L3616.67 553.511C3622.33 513.886 3632.23 479.639 3646.39 450.77C3661.1 421.9 3680.92 399.54 3705.82 383.69C3731.3 367.84 3762.71 359.915 3800.07 359.915C3844.79 359.915 3883 370.671 3914.7 392.181C3946.4 413.692 3970.74 443.411 3987.73 481.337C4005.27 519.264 4014.05 562.852 4014.05 612.1C4014.05 660.782 4005.27 704.086 3987.73 742.013C3970.74 779.939 3946.4 809.658 3914.7 831.169C3883 852.113 3844.79 862.586 3800.07 862.586ZM3548.74 849V212.171H3655.73V849H3548.74ZM3783.09 766.637C3809.13 766.637 3831.21 760.127 3849.32 747.107C3867.44 733.522 3881.02 715.124 3890.08 691.916C3899.7 668.141 3904.51 641.535 3904.51 612.1C3904.51 582.098 3899.7 555.21 3890.08 531.435C3881.02 507.66 3867.44 489.262 3849.32 476.243C3831.21 462.657 3809.13 455.864 3783.09 455.864C3754.22 455.864 3730.45 462.657 3711.77 476.243C3693.09 489.828 3678.93 508.509 3669.31 532.284C3660.25 556.059 3655.73 582.664 3655.73 612.1C3655.73 640.969 3660.25 667.291 3669.31 691.066C3678.93 714.275 3693.09 732.673 3711.77 746.258C3730.45 759.844 3754.22 766.637 3783.09 766.637ZM4072.83 212.171H4179.82V849H4072.83V212.171ZM4476.94 862.586C4427.7 862.586 4384.96 852.113 4348.73 831.169C4312.5 809.658 4284.2 779.939 4263.82 742.013C4244.01 704.086 4234.1 660.782 4234.1 612.1C4234.1 562.852 4244.01 519.264 4263.82 481.337C4284.2 443.411 4312.5 413.692 4348.73 392.181C4384.96 370.671 4427.7 359.915 4476.94 359.915C4509.21 359.915 4539.49 366.425 4567.8 379.445C4596.67 391.898 4621.57 410.579 4642.52 435.486C4663.46 459.827 4678.75 489.828 4688.37 525.491C4697.99 561.153 4699.97 601.627 4694.31 646.913H4295.23V559.455H4627.23L4589.03 584.079C4590.72 562.568 4587.61 541.907 4579.69 522.094C4572.33 502.282 4560.16 486.432 4543.17 474.545C4526.19 462.091 4504.11 455.864 4476.94 455.864C4446.38 455.864 4421.19 462.657 4401.37 476.243C4381.56 489.828 4366.84 508.509 4357.22 532.284C4348.16 556.059 4343.63 582.664 4343.63 612.1C4343.63 640.969 4348.16 667.291 4357.22 691.066C4366.84 714.275 4381.56 732.673 4401.37 746.258C4421.19 759.844 4446.38 766.637 4476.94 766.637C4505.25 766.637 4528.17 760.127 4545.72 747.107C4563.27 733.522 4575.44 717.106 4582.23 697.859H4695.16C4687.8 730.691 4674.22 759.561 4654.41 784.468C4635.16 808.809 4610.25 828.055 4579.69 842.207C4549.68 855.793 4515.44 862.586 4476.94 862.586Z" fill="white"/>
<defs>
<linearGradient id="paint0_linear_1338_2779" x1="594.361" y1="652.577" x2="261.554" y2="140.84" gradientUnits="userSpaceOnUse">
<stop stop-color="#FF7802"/>
<stop offset="1" stop-color="#BC3500"/>
</linearGradient>
</defs>
</svg>
